HIERARCHY
ROOT Hips
{
	OFFSET 0.000000 100.481300 0.000000
	CHANNELS 6 Xposition Yposition Zposition Xrotation Yrotation Zrotation
	JOINT Spine
	{
		OFFSET -0.279200 12.230698 -2.892100
		CHANNELS 3 Xrotation Yrotation Zrotation
		JOINT Spine1
		{
			OFFSET -0.325700 14.269203 -3.374200
			CHANNELS 3 Xrotation Yrotation Zrotation
			JOINT Spine2
			{
				OFFSET -0.372300 16.307602 -0.352600
				CHANNELS 3 Xrotation Yrotation Zrotation
				JOINT Neck
				{
					OFFSET -0.418800 17.814194 8.416900
					CHANNELS 3 Xrotation Yrotation Zrotation
					JOINT Head
					{
						OFFSET 0.000000 7.031097 3.806800
						CHANNELS 3 Xrotation Yrotation Zrotation
						JOINT HeadTop_End
						{
							OFFSET 0.000000 24.646606 12.978600
							CHANNELS 3 Xrotation Yrotation Zrotation
							End Site
							{
								OFFSET 0.000000 27.854965 0.000000
							}
						}
					}
				}
				JOINT LeftShoulder
				{
					OFFSET 16.952999 14.495407 -7.737500
					CHANNELS 3 Xrotation Yrotation Zrotation
					JOINT LeftArm
					{
						OFFSET 9.308998 -2.777710 0.208600
						CHANNELS 3 Xrotation Yrotation Zrotation
						JOINT LeftForeArm
						{
							OFFSET 29.972298 0.000000 0.000000
							CHANNELS 3 Xrotation Yrotation Zrotation
							JOINT LeftHand
							{
								OFFSET 26.026505 0.000000 0.000000
								CHANNELS 3 Xrotation Yrotation Zrotation
								JOINT LeftHandThumb1
								{
									OFFSET 12.240501 -7.147949 9.207150
									CHANNELS 3 Xrotation Yrotation Zrotation
									JOINT LeftHandThumb2
									{
										OFFSET 4.138618 -2.389435 2.389433
										CHANNELS 3 Xrotation Yrotation Zrotation
										JOINT LeftHandThumb3
										{
											OFFSET 2.726913 -1.574387 1.574386
											CHANNELS 3 Xrotation Yrotation Zrotation
											JOINT LeftHandThumb4
											{
												OFFSET 3.941010 -2.275345 2.275342
												CHANNELS 3 Xrotation Yrotation Zrotation
												End Site
												{
													OFFSET -0.005798 5.087799 0.009903
												}
											}
										}
									}
								}
								JOINT LeftHandIndex1
								{
									OFFSET 24.424698 -1.985611 5.953459
									CHANNELS 3 Xrotation Yrotation Zrotation
									JOINT LeftHandIndex2
									{
										OFFSET 6.426697 0.000000 0.000000
										CHANNELS 3 Xrotation Yrotation Zrotation
										JOINT LeftHandIndex3
										{
											OFFSET 5.337898 0.000000 0.000000
											CHANNELS 3 Xrotation Yrotation Zrotation
											JOINT LeftHandIndex4
											{
												OFFSET 4.409401 0.000000 0.000000
												CHANNELS 3 Xrotation Yrotation Zrotation
												End Site
												{
													OFFSET 0.000000 4.409363 0.014373
												}
											}
										}
									}
								}
								JOINT LeftHandMiddle1
								{
									OFFSET 23.810104 0.000000 0.000000
									CHANNELS 3 Xrotation Yrotation Zrotation
									JOINT LeftHandMiddle2
									{
										OFFSET 7.176498 0.000000 0.000000
										CHANNELS 3 Xrotation Yrotation Zrotation
										JOINT LeftHandMiddle3
										{
											OFFSET 6.774902 0.000000 0.000000
											CHANNELS 3 Xrotation Yrotation Zrotation
											JOINT LeftHandMiddle4
											{
												OFFSET 5.403328 0.000000 0.000000
												CHANNELS 3 Xrotation Yrotation Zrotation
												End Site
												{
													OFFSET -0.027702 5.403244 0.017414
												}
											}
										}
									}
								}
								JOINT LeftHandRing1
								{
									OFFSET 22.908401 -0.839279 -6.020567
									CHANNELS 3 Xrotation Yrotation Zrotation
									JOINT LeftHandRing2
									{
										OFFSET 6.337502 0.000000 0.000000
										CHANNELS 3 Xrotation Yrotation Zrotation
										JOINT LeftHandRing3
										{
											OFFSET 5.779297 0.000000 0.000000
											CHANNELS 3 Xrotation Yrotation Zrotation
											JOINT LeftHandRing4
											{
												OFFSET 4.965698 0.000000 0.000000
												CHANNELS 3 Xrotation Yrotation Zrotation
												End Site
												{
													OFFSET 0.000000 4.965668 0.016186
												}
											}
										}
									}
								}
								JOINT LeftHandPinky1
								{
									OFFSET 20.037003 -1.530319 -10.950146
									CHANNELS 3 Xrotation Yrotation Zrotation
									JOINT LeftHandPinky2
									{
										OFFSET 5.254700 0.000000 0.000000
										CHANNELS 3 Xrotation Yrotation Zrotation
										JOINT LeftHandPinky3
										{
											OFFSET 4.810204 0.000000 0.000000
											CHANNELS 3 Xrotation Yrotation Zrotation
											JOINT LeftHandPinky4
											{
												OFFSET 3.647202 0.000000 0.000000
												CHANNELS 3 Xrotation Yrotation Zrotation
												End Site
												{
													OFFSET 0.000000 3.647186 0.011889
												}
											}
										}
									}
								}
							}
						}
					}
				}
				JOINT RightShoulder
				{
					OFFSET -15.141001 14.495407 -7.737500
					CHANNELS 3 Xrotation Yrotation Zrotation
					JOINT RightArm
					{
						OFFSET -9.308998 -2.777710 0.208500
						CHANNELS 3 Xrotation Yrotation Zrotation
						JOINT RightForeArm
						{
							OFFSET -29.972300 0.000000 0.000000
							CHANNELS 3 Xrotation Yrotation Zrotation
							JOINT RightHand
							{
								OFFSET -26.026505 0.000000 0.000000
								CHANNELS 3 Xrotation Yrotation Zrotation
								JOINT RightHandThumb1
								{
									OFFSET -12.240601 -7.148026 9.207092
									CHANNELS 3 Xrotation Yrotation Zrotation
									JOINT RightHandThumb2
									{
										OFFSET -4.138618 -2.389435 2.389433
										CHANNELS 3 Xrotation Yrotation Zrotation
										JOINT RightHandThumb3
										{
											OFFSET -2.726974 -1.574417 1.574421
											CHANNELS 3 Xrotation Yrotation Zrotation
											JOINT RightHandThumb4
											{
												OFFSET -3.941010 -2.275345 2.275343
												CHANNELS 3 Xrotation Yrotation Zrotation
												End Site
												{
													OFFSET 0.005814 5.087799 0.009927
												}
											}
										}
									}
								}
								JOINT RightHandIndex1
								{
									OFFSET -24.424698 -1.985657 5.953444
									CHANNELS 3 Xrotation Yrotation Zrotation
									JOINT RightHandIndex2
									{
										OFFSET -6.426697 0.000000 0.000000
										CHANNELS 3 Xrotation Yrotation Zrotation
										JOINT RightHandIndex3
										{
											OFFSET -5.337898 0.000000 0.000000
											CHANNELS 3 Xrotation Yrotation Zrotation
											JOINT RightHandIndex4
											{
												OFFSET -4.409401 0.000000 0.000000
												CHANNELS 3 Xrotation Yrotation Zrotation
												End Site
												{
													OFFSET 0.000000 4.409363 0.014408
												}
											}
										}
									}
								}
								JOINT RightHandMiddle1
								{
									OFFSET -23.810097 0.000000 0.000000
									CHANNELS 3 Xrotation Yrotation Zrotation
									JOINT RightHandMiddle2
									{
										OFFSET -7.176498 0.000000 0.000000
										CHANNELS 3 Xrotation Yrotation Zrotation
										JOINT RightHandMiddle3
										{
											OFFSET -6.774902 0.000000 0.000000
											CHANNELS 3 Xrotation Yrotation Zrotation
											JOINT RightHandMiddle4
											{
												OFFSET -5.403328 0.000000 0.000000
												CHANNELS 3 Xrotation Yrotation Zrotation
												End Site
												{
													OFFSET 0.027702 5.403244 0.017457
												}
											}
										}
									}
								}
								JOINT RightHandRing1
								{
									OFFSET -22.908302 -0.839325 -6.020576
									CHANNELS 3 Xrotation Yrotation Zrotation
									JOINT RightHandRing2
									{
										OFFSET -6.337502 0.000000 0.000000
										CHANNELS 3 Xrotation Yrotation Zrotation
										JOINT RightHandRing3
										{
											OFFSET -5.779297 0.000000 0.000000
											CHANNELS 3 Xrotation Yrotation Zrotation
											JOINT RightHandRing4
											{
												OFFSET -4.965698 0.000000 0.000000
												CHANNELS 3 Xrotation Yrotation Zrotation
												End Site
												{
													OFFSET 0.000000 4.965668 0.016226
												}
											}
										}
									}
								}
								JOINT RightHandPinky1
								{
									OFFSET -20.037003 -1.530334 -10.950259
									CHANNELS 3 Xrotation Yrotation Zrotation
									JOINT RightHandPinky2
									{
										OFFSET -5.254700 0.000000 0.000000
										CHANNELS 3 Xrotation Yrotation Zrotation
										JOINT RightHandPinky3
										{
											OFFSET -4.810204 0.000000 0.000000
											CHANNELS 3 Xrotation Yrotation Zrotation
											JOINT RightHandPinky4
											{
												OFFSET -3.647202 0.000000 0.000000
												CHANNELS 3 Xrotation Yrotation Zrotation
												End Site
												{
													OFFSET 0.000000 3.647186 0.011917
												}
											}
										}
									}
								}
							}
						}
					}
				}
			}
		}
	}
	JOINT LeftUpLeg
	{
		OFFSET 15.427100 -6.655098 0.678600
		CHANNELS 3 Xrotation Yrotation Zrotation
		JOINT LeftLeg
		{
			OFFSET 4.081073 -39.591068 13.024000
			CHANNELS 3 Xrotation Yrotation Zrotation
			JOINT LeftFoot
			{
				OFFSET -4.081074 -37.707932 -15.979700
				CHANNELS 3 Xrotation Yrotation Zrotation
				JOINT LeftToeBase
				{
					OFFSET 5.346399 -15.068900 20.645000
					CHANNELS 3 Xrotation Yrotation Zrotation
					JOINT LeftToe_End
					{
						OFFSET 2.754700 0.931300 11.300900
						CHANNELS 3 Xrotation Yrotation Zrotation
						End Site
						{
							OFFSET 0.000000 11.669021 0.000000
						}
					}
				}
			}
		}
	}
	JOINT RightUpLeg
	{
		OFFSET -15.569500 -6.655098 0.678600
		CHANNELS 3 Xrotation Yrotation Zrotation
		JOINT RightLeg
		{
			OFFSET -4.081825 -39.591045 13.023800
			CHANNELS 3 Xrotation Yrotation Zrotation
			JOINT RightFoot
			{
				OFFSET 4.081824 -37.707954 -15.979600
				CHANNELS 3 Xrotation Yrotation Zrotation
				JOINT RightToeBase
				{
					OFFSET -5.346400 -15.068900 20.645000
					CHANNELS 3 Xrotation Yrotation Zrotation
					JOINT RightToe_End
					{
						OFFSET -2.754700 0.931300 11.300900
						CHANNELS 3 Xrotation Yrotation Zrotation
						End Site
						{
							OFFSET 0.000000 11.669021 0.000000
						}
					}
				}
			}
		}
	}
}
MOTION
Frames: 4
Frame Time: 0.033333
2.191004 72.841354 -1.705030 -5.291109 -46.432002 -0.526348 9.371452 7.434996 -1.366738 2.187715 0.989897 -0.916852 2.202830 0.982755 -0.894150 0.145998 13.202883 4.538678 8.776686 20.017732 -4.078165 -0.000001 0.000000 0.000001 1.117179 3.546354 -8.633310 -53.526977 4.941813 -51.477623 0.000046 -106.600852 0.000059 1.988613 -7.706140 -15.869221 -6.141230 -11.690805 -6.761695 9.914122 42.595519 3.409854 -0.422801 8.108083 27.509106 0.000003 -0.000004 0.000001 0.255315 3.378214 -45.814344 5.654086 5.847754 -88.067448 2.162141 4.544808 -50.866365 0.000001 0.000001 -0.000002 -0.461475 3.841588 -39.722690 6.450751 5.820359 -95.892844 2.182893 4.561566 -51.127746 -0.000000 0.000001 -0.000000 0.469721 4.966821 -39.799434 8.181043 5.368612 -113.503011 3.200486 5.218109 -63.022975 -0.000000 -0.000001 -0.000001 -3.762440 9.063684 -45.253825 5.342542 5.829000 -85.005317 8.716839 5.103319 -119.369208 -0.000000 0.000001 -0.000001 3.032210 13.016449 -5.365511 -48.631739 27.130502 83.394629 0.000031 106.245519 -0.000029 -8.345363 17.548105 8.775689 -7.341115 13.749651 7.412321 9.855808 -44.489093 -3.903241 -0.115778 -14.513075 -28.973884 0.000001 0.000002 -0.000000 -0.124380 -2.384793 45.108871 4.500596 -4.654542 88.071171 1.723231 -3.618376 50.920098 -0.000001 -0.000001 -0.000001 -0.761624 -2.932909 39.031061 5.133894 -4.632760 95.881663 1.739739 -3.631703 51.181346 -0.000003 0.000000 0.000000 0.154755 -4.068815 39.122661 6.509730 -4.273596 113.462863 2.549582 -4.153927 63.067330 -0.000000 0.000001 -0.000001 -4.198881 -8.025518 44.637779 4.252914 -4.639635 85.014825 6.935965 -4.062630 119.322285 -0.000001 0.000000 -0.000001 -34.340053 5.015200 20.366130 56.807179 -7.623875 3.669344 -20.159684 -7.070551 -17.233604 -1.594030 -0.000009 -0.000006 -0.000000 -0.000002 -0.000000 -19.483391 -8.991563 -34.599512 56.965816 -2.886484 -4.767993 -26.244817 -10.327431 26.259176 -0.013000 -0.000014 0.000012 -0.000000 -0.000001 0.000000 
1.482054 71.941551 0.860142 -6.117025 -45.832099 -1.186103 9.784416 7.186693 -1.514902 2.495085 0.602917 -0.934900 3.475048 0.344465 -0.833037 -1.597056 13.621458 4.063252 9.069611 19.964959 -4.593923 0.000000 -0.000000 0.000000 1.005369 4.422750 -8.783257 -54.809649 5.230830 -50.141389 0.000052 -107.273448 0.000052 2.223952 -8.197960 -16.632856 -6.141230 -11.690804 -6.761690 9.914119 42.595515 3.409853 -0.422804 8.108086 27.509106 -0.000002 -0.000002 0.000001 0.255314 3.378215 -45.814337 5.654087 5.847754 -88.067448 2.162143 4.544811 -50.866365 0.000001 0.000001 0.000001 -0.461475 3.841590 -39.722690 6.450748 5.820355 -95.892844 2.182893 4.561566 -51.127746 -0.000000 -0.000001 -0.000001 0.469719 4.966825 -39.799434 8.181044 5.368612 -113.503011 3.200491 5.218112 -63.022975 0.000000 0.000001 0.000002 -3.762443 9.063689 -45.253825 5.342546 5.828999 -85.005311 8.716836 5.103323 -119.369194 0.000000 0.000001 0.000001 2.995051 13.008523 -5.577220 -51.752398 28.244907 85.694121 0.000239 104.701022 -0.000260 -8.387202 18.378087 8.611756 -7.341114 13.749652 7.412324 9.855807 -44.489093 -3.903232 -0.115778 -14.513075 -28.973878 -0.000001 -0.000000 -0.000000 -0.124378 -2.384789 45.108868 4.500593 -4.654542 88.071171 1.723229 -3.618374 50.920098 0.000000 -0.000001 -0.000000 -0.761624 -2.932907 39.031061 5.133892 -4.632763 95.881663 1.739739 -3.631700 51.181340 0.000000 0.000000 0.000001 0.154757 -4.068812 39.122658 6.509730 -4.273597 113.462863 2.549581 -4.153929 63.067330 0.000002 0.000002 -0.000000 -4.198881 -8.025513 44.637783 4.252912 -4.639637 85.014832 6.935965 -4.062628 119.322285 -0.000001 -0.000000 -0.000001 -33.212744 5.815365 19.972950 59.520208 -8.560447 3.583139 -24.164323 -7.796981 -14.334807 -1.821007 -0.000006 0.000007 -0.000000 -0.000001 -0.000000 -20.709504 -7.424702 -31.661984 62.598424 0.945579 -5.153605 -26.169938 -14.541242 21.739956 -5.822643 -0.000030 0.000002 0.000000 0.000000 -0.000000 
0.826435 70.488144 4.054239 -7.581321 -44.531174 -2.374005 10.335152 6.947705 -1.664909 3.597182 0.222138 -0.956429 5.630151 -0.521541 -0.649430 -4.688249 14.045161 3.237756 8.532016 18.312967 -4.150090 -0.000000 -0.000000 -0.000000 1.024340 4.775429 -9.033223 -57.744912 6.408497 -48.718732 0.000046 -106.571319 0.000053 2.323403 -8.929528 -16.917632 -6.141230 -11.690806 -6.761689 9.914111 42.595522 3.409850 -0.422803 8.108081 27.509104 0.000000 -0.000001 0.000002 0.255313 3.378210 -45.814341 5.654086 5.847755 -88.067448 2.162141 4.544808 -50.866369 -0.000001 -0.000003 0.000001 -0.461478 3.841590 -39.722679 6.450746 5.820357 -95.892844 2.182892 4.561565 -51.127743 -0.000001 0.000000 -0.000001 0.469719 4.966820 -39.799430 8.181039 5.368614 -113.503004 3.200486 5.218113 -63.022975 -0.000000 0.000002 0.000000 -3.762443 9.063684 -45.253825 5.342545 5.829001 -85.005311 8.716836 5.103322 -119.369194 0.000001 0.000000 0.000001 2.931655 13.013280 -5.753999 -57.833083 28.797666 89.454305 0.000612 99.411744 -0.000633 -7.906390 19.458427 8.925087 -7.341112 13.749652 7.412327 9.855806 -44.489089 -3.903238 -0.115776 -14.513076 -28.973878 0.000000 0.000001 -0.000001 -0.124378 -2.384788 45.108874 4.500593 -4.654542 88.071171 1.723229 -3.618376 50.920095 -0.000000 0.000002 -0.000001 -0.761622 -2.932908 39.031065 5.133890 -4.632765 95.881670 1.739738 -3.631699 51.181343 -0.000001 -0.000003 -0.000003 0.154757 -4.068810 39.122664 6.509730 -4.273595 113.462870 2.549582 -4.153929 63.067330 -0.000002 -0.000000 0.000000 -4.198881 -8.025516 44.637779 4.252915 -4.639635 85.014825 6.935970 -4.062630 119.322285 0.000000 -0.000000 0.000000 -31.845378 6.546235 19.550220 63.059653 -9.485712 3.571818 -27.856580 -8.211331 -12.656539 -3.607480 0.000019 -0.000000 -0.000000 -0.000001 -0.000000 -23.698934 -6.165550 -25.034042 72.853236 5.640819 -6.316223 -24.818746 -21.023143 15.492010 -15.864458 -0.000044 0.000004 0.000000 -0.000001 -0.000000 
0.335476 69.983582 8.183122 -8.472334 -42.858457 -3.492553 10.543597 6.822609 -1.381749 4.810048 -0.096017 -0.887739 7.762991 -1.418178 -0.501085 -6.882553 14.256603 2.439836 7.903308 15.747059 -2.940596 -0.000002 0.000000 -0.000000 1.157986 4.542015 -9.321344 -58.991067 8.940722 -48.378510 -0.000042 -108.557128 -0.000050 2.209560 -9.971771 -16.593123 -6.141231 -11.690802 -6.761692 9.914113 42.595522 3.409849 -0.422805 8.108080 27.509103 0.000000 -0.000001 0.000002 0.255314 3.378213 -45.814334 5.654089 5.847752 -88.067455 2.162141 4.544810 -50.866362 0.000000 0.000000 -0.000002 -0.461478 3.841592 -39.722683 6.450748 5.820358 -95.892844 2.182894 4.561565 -51.127746 0.000001 -0.000001 0.000003 0.469719 4.966823 -39.799430 8.181040 5.368613 -113.503004 3.200487 5.218113 -63.022975 -0.000000 -0.000001 -0.000002 -3.762443 9.063687 -45.253821 5.342547 5.828999 -85.005311 8.716837 5.103323 -119.369194 0.000001 0.000001 0.000001 2.888233 13.068491 -5.868183 -57.699048 29.500103 90.096636 0.000157 100.399532 -0.000143 -7.154873 20.531308 9.920904 -7.341112 13.749653 7.412324 9.855807 -44.489096 -3.903236 -0.115774 -14.513076 -28.973878 -0.000002 -0.000004 0.000001 -0.124377 -2.384787 45.108868 4.500593 -4.654541 88.071171 1.723231 -3.618377 50.920098 0.000000 -0.000001 0.000001 -0.761623 -2.932907 39.031058 5.133895 -4.632761 95.881663 1.739739 -3.631698 51.181346 0.000000 0.000001 -0.000002 0.154758 -4.068814 39.122661 6.509729 -4.273595 113.462863 2.549582 -4.153924 63.067330 0.000002 0.000000 0.000001 -4.198880 -8.025516 44.637776 4.252915 -4.639637 85.014832 6.935970 -4.062633 119.322285 -0.000002 -0.000000 0.000000 -29.234299 5.955624 20.178494 67.700384 -6.781573 2.889827 -29.489950 -9.123136 -11.537332 -14.519712 -0.000030 0.000000 0.000000 -0.000002 -0.000000 -20.461526 -7.824917 -20.379729 74.329158 5.786560 -9.580283 -27.539183 -25.622534 13.856533 -23.172894 -0.000021 0.000003 -0.000000 -0.000001 -0.000001 
